<svg width="1920" height="845" viewBox="0 0 1920 845" fill="none" xmlns="http://www.w3.org/2000/svg">
<path d="M-410.649 0.999651C-338.475 236.712 -303.644 393.054 -177.196 441.429C-50.7485 489.804 68.8547 420.395 158.611 444.445C248.368 468.495 276.196 538.068 290.478 600.388C304.759 662.708 340.863 727.769 449.636 756.915C558.409 786.061 635.172 743.995 675.367 703.519C715.562 663.043 815.243 583.119 917.17 610.43C1019.1 637.741 1040.92 755.703 1139.41 774.542C1237.9 793.381 1288.73 662.885 1389.14 689.789C1489.55 716.692 1503.39 803.991 1624.24 837.16C1745.1 870.329 1777.23 773.347 1868.42 731.767C1959.62 690.187 1943.02 769.492 1943.02 769.492" stroke="url(#paint0_linear_131_251)" stroke-width="2" stroke-linecap="round" stroke-linejoin="round"/>
<defs>
<linearGradient id="paint0_linear_131_251" x1="-410.649" y1="0.999651" x2="1977.47" y2="640.894" gradientUnits="userSpaceOnUse">
<stop stop-color="#FF59F8"/>
<stop offset="0.197917" stop-color="#AE72FF"/>
<stop offset="0.40625" stop-color="#90E9ED"/>
<stop offset="0.619792" stop-color="#5CD167"/>
<stop offset="0.825321" stop-color="#FFEE00"/>
</linearGradient>
</defs>
</svg>
