<svg width="1920" height="486" fill="none" xmlns="http://www.w3.org/2000/svg"><path opacity=".5" d="M-87 1C43.722 210 118.34 293.706 253 307.706S441.077 282 534 282s181.446 60 211.37 116.5c29.924 56.5 75.52 85.706 188.13 85.706S1115.49 448 1143.84 398.5C1172.19 349 1247.78 246 1353.31 246c105.52 0 212.18 92 312.19 84.706 100.01-7.294 142.05-153.5 246-153.5 103.95 0 58.15 104.035 183.47 104.794 125.32.759 131.26-101.234 208.58-165 77.33-63.766 81.82 17.134 81.82 17.134" stroke="url(#paint0_linear_153_635)" stroke-width="2" stroke-linecap="round" stroke-linejoin="round"/><defs><linearGradient id="paint0_linear_153_635" x1="-87" y1="1" x2="2385.37" y2="1" gradientUnits="userSpaceOnUse"><stop stop-color="#FF59F8"/><stop offset=".198" stop-color="#AE72FF"/><stop offset=".406" stop-color="#90E9ED"/><stop offset=".62" stop-color="#5CD167"/><stop offset=".825" stop-color="#FE0"/></linearGradient></defs></svg>