<svg width="1920" height="845" fill="none" xmlns="http://www.w3.org/2000/svg"><path d="M-410.649 1c72.174 235.712 107.005 392.054 233.453 440.429 126.447 48.375 246.05-21.034 335.807 3.016 89.757 24.05 117.585 93.623 131.867 155.943 14.281 62.32 50.385 127.381 159.158 156.527 108.773 29.146 185.536-12.92 225.731-53.396 40.195-40.476 139.876-120.4 241.803-93.089 101.93 27.311 123.75 145.273 222.24 164.112 98.49 18.839 149.32-111.657 249.73-84.753 100.41 26.903 114.25 114.202 235.1 147.371 120.86 33.169 152.99-63.813 244.18-105.393 91.2-41.58 74.6 37.725 74.6 37.725" stroke="url(#paint0_linear_131_251)" stroke-width="2" stroke-linecap="round" stroke-linejoin="round"/><defs><linearGradient id="paint0_linear_131_251" x1="-410.649" y1="1" x2="1977.47" y2="640.894" gradientUnits="userSpaceOnUse"><stop stop-color="#FF59F8"/><stop offset=".198" stop-color="#AE72FF"/><stop offset=".406" stop-color="#90E9ED"/><stop offset=".62" stop-color="#5CD167"/><stop offset=".825" stop-color="#FE0"/></linearGradient></defs></svg>