<svg width="1920" height="567" fill="none" xmlns="http://www.w3.org/2000/svg"><path d="M-113 1C7.33 210 114.612 384.5 238.566 398.5 362.52 412.5 413.261 282 498.797 282c85.535 0 126.853 60 154.398 116.5C680.741 455 735.831 566 839.489 566c103.657 0 154.399-118 180.491-167.5 26.1-49.5 95.69-152.5 192.82-152.5s126.13 57.794 218.19 50.5c92.06-7.294 124.68-96 220.36-96 95.69 0 52.09 67.241 167.45 68 115.36.759 130.95-80.662 202.13-144.428 71.17-63.766 141.88 10.062 141.88 10.062" stroke="url(#paint0_linear_131_25)" stroke-width="2" stroke-linecap="round" stroke-linejoin="round"/><defs><linearGradient id="paint0_linear_131_25" x1="-113" y1="1" x2="2162.81" y2="1" gradientUnits="userSpaceOnUse"><stop stop-color="#FF59F8"/><stop offset=".198" stop-color="#AE72FF"/><stop offset=".406" stop-color="#90E9ED"/><stop offset=".62" stop-color="#5CD167"/><stop offset=".825" stop-color="#FE0"/></linearGradient></defs></svg>