<svg width="1920" height="233" fill="none" xmlns="http://www.w3.org/2000/svg"><path d="M-301.816 1c127.653 83.906 199.688 140.363 334.035 150.694 134.347 10.331 233.215-23.069 326.06-19.593 92.844 3.477 136.843 27.84 165.942 50.32 29.099 22.48 80.011 44.641 192.526 48.854 112.514 4.213 176.576-16.293 205.603-33.946 29.026-17.653 106.02-53.765 211.45-49.817 105.43 3.948 155.47 46.82 255.5 47.805 100.02.984 117.31-51.071 221.17-47.182 103.86 3.889 138.65 35.76 263.85 40.735 125.21 4.976 132.58-33.361 210.75-54.576 78.16-21.214 81.5 9.539 81.5 9.539" stroke="url(#paint0_linear_131_785)" stroke-width="2" stroke-linecap="round" stroke-linejoin="round"/><defs><linearGradient id="paint0_linear_131_785" x1="-301.816" y1="1" x2="2168.45" y2="93.5" gradientUnits="userSpaceOnUse"><stop stop-color="#FF59F8"/><stop offset=".198" stop-color="#AE72FF"/><stop offset=".406" stop-color="#90E9ED"/><stop offset=".62" stop-color="#5CD167"/><stop offset=".825" stop-color="#FE0"/></linearGradient></defs></svg>