<svg width="250" height="39" fill="none" xmlns="http://www.w3.org/2000/svg"><g clip-path="url(#clip0_301_63)"><path d="M58.965 15.892a6.28 6.28 0 01-.583 2.798 5.302 5.302 0 01-1.632 1.964c-.757.54-1.608.93-2.508 1.146a12.617 12.617 0 01-3.165.376 23.414 23.414 0 01-2.94-.18 16.9 16.9 0 01-2.814-.602v-3.647a22.878 22.878 0 002.904.82c.499.107.993.188 1.484.26.475.06.954.089 1.433.09.591.01 1.182-.05 1.76-.18a3.63 3.63 0 001.182-.498c.283-.186.512-.445.665-.75.14-.301.212-.631.208-.964a1.83 1.83 0 00-.407-1.212 3.82 3.82 0 00-1.072-.865 9.638 9.638 0 00-1.515-.677c-.565-.2-1.144-.417-1.73-.649a18.672 18.672 0 01-1.73-.781 6.306 6.306 0 01-1.514-1.084 4.977 4.977 0 01-1.07-1.542 5.195 5.195 0 01-.378-2.18 5.924 5.924 0 01.412-2.197 4.687 4.687 0 011.302-1.824 6.55 6.55 0 012.275-1.234 10.798 10.798 0 013.344-.456c.386 0 .785.018 1.205.052.42.034.834.08 1.24.135a20.766 20.766 0 012.227.43v3.387a9.8 9.8 0 00-1.024-.331 13.03 13.03 0 00-1.159-.26c-.399-.072-.8-.13-1.205-.172-.404-.04-.788-.06-1.151-.06a7.06 7.06 0 00-1.627.159 3.454 3.454 0 00-1.093.435 1.659 1.659 0 00-.622.685 2.09 2.09 0 00-.192.901c-.006.395.14.777.407 1.063.313.326.678.596 1.08.797.492.254 1 .476 1.52.662.568.205 1.15.425 1.745.662a17.87 17.87 0 011.745.805 6.825 6.825 0 011.522 1.1c.447.438.808.958 1.065 1.534a4.93 4.93 0 01.406 2.084zm14.861 5.351c-.71.292-1.447.51-2.2.649a13.28 13.28 0 01-2.38.21 9.685 9.685 0 01-3.209-.497 6.375 6.375 0 01-2.407-1.474 6.4 6.4 0 01-1.515-2.423 9.743 9.743 0 01-.525-3.34 9.266 9.266 0 01.568-3.327 7.095 7.095 0 011.6-2.539 6.939 6.939 0 012.494-1.63 8.811 8.811 0 013.245-.57c.823-.01 1.645.042 2.46.156.606.094 1.204.228 1.792.399v3.564a8.986 8.986 0 00-1.988-.722 8.803 8.803 0 00-2.032-.26 4.453 4.453 0 00-1.79.346 3.775 3.775 0 00-1.346.961 4.19 4.19 0 00-.837 1.498 6.196 6.196 0 00-.29 1.934c-.012.67.091 1.34.305 1.974.19.551.49 1.056.88 1.483.383.409.85.727 1.367.932a4.67 4.67 0 001.773.323c.334 0 .667-.023.998-.067.353-.045.703-.11 1.049-.196.35-.086.696-.182 1.036-.291.34-.11.657-.232.952-.363v3.27zm13.251-8.756a7.004 7.004 0 00-.082-1.462 2.823 2.823 0 00-.356-.992 1.5 1.5 0 00-.599-.57 1.734 1.734 0 00-.81-.183 2.693 2.693 0 00-1.648.67 9.624 9.624 0 00-1.87 2.206v9.676h-3.695V6.542h3.267l.133 2.227a6.01 6.01 0 01.834-1.042c.306-.311.65-.582 1.023-.805a4.87 4.87 0 011.264-.521 6.063 6.063 0 011.523-.18 4.836 4.836 0 012.016.399 3.82 3.82 0 011.479 1.183 5.25 5.25 0 01.888 1.961c.205.896.291 1.815.255 2.733l-3.622-.01zm19.146.539c0 .25-.008.576-.023.977-.016.401-.036.782-.067 1.128h-9.871c-.012.607.09 1.21.302 1.777.188.489.48.928.857 1.287a3.7 3.7 0 001.33.781 5.22 5.22 0 001.722.26 17.273 17.273 0 002.344-.171 18.543 18.543 0 002.597-.568v2.928c-.384.11-.803.21-1.256.3-.454.09-.917.17-1.39.24-.47.07-.949.125-1.432.158a20.07 20.07 0 01-1.405.052 8.92 8.92 0 01-3.07-.494 6.083 6.083 0 01-2.303-1.467 6.445 6.445 0 01-1.448-2.402 9.95 9.95 0 01-.512-3.309c-.01-1.15.162-2.293.512-3.387a7.86 7.86 0 011.417-2.605 6.247 6.247 0 012.226-1.685 6.968 6.968 0 012.917-.594 7.386 7.386 0 012.814.505 5.65 5.65 0 012.047 1.407 5.991 5.991 0 011.257 2.152 8.38 8.38 0 01.435 2.73zm-3.667-.521a4.526 4.526 0 00-.22-1.563 3.16 3.16 0 00-.642-1.105 2.557 2.557 0 00-.947-.648 3.16 3.16 0 00-1.159-.211 2.91 2.91 0 00-1.214.22c-.385.16-.732.401-1.02.707-.58.615-.92 1.483-1.023 2.605l6.225-.005zm19.399.521c0 .25-.007.576-.023.977a23.4 23.4 0 01-.066 1.128h-9.871c-.012.607.09 1.21.302 1.777.187.489.48.928.857 1.287.385.352.838.618 1.33.781a5.195 5.195 0 001.722.26 17.185 17.185 0 002.341-.171 18.547 18.547 0 002.595-.568v2.928c-.384.11-.803.21-1.257.3a27.6 27.6 0 01-1.389.24c-.473.07-.949.125-1.433.158-.483.034-.952.052-1.404.052a8.914 8.914 0 01-3.071-.494 6.063 6.063 0 01-2.302-1.467 6.45 6.45 0 01-1.449-2.402 9.935 9.935 0 01-.511-3.309 10.8 10.8 0 01.511-3.387 7.81 7.81 0 011.418-2.605 6.266 6.266 0 012.223-1.685 6.99 6.99 0 012.915-.615 7.39 7.39 0 012.814.505 5.65 5.65 0 012.047 1.407 5.98 5.98 0 011.279 2.152c.293.886.436 1.816.422 2.751zm-3.666-.521a4.55 4.55 0 00-.22-1.563 3.142 3.142 0 00-.645-1.105 2.527 2.527 0 00-.944-.648 3.165 3.165 0 00-1.162-.211 2.903 2.903 0 00-1.207.209 2.95 2.95 0 00-1.021.69c-.58.614-.921 1.483-1.024 2.605l6.223.023zm15.269 9.327v-9.963c0-1.674-.61-2.512-1.831-2.514a2.597 2.597 0 00-1.751.753 12.968 12.968 0 00-1.768 2.048v9.676h-3.605V6.542h3.119l.087 2.258c.295-.378.613-.736.955-1.07a5.53 5.53 0 011.072-.818 5.08 5.08 0 011.241-.521 5.703 5.703 0 011.491-.18 4.898 4.898 0 012.014.383 3.913 3.913 0 011.433 1.084c.401.494.697 1.068.87 1.685.2.717.297 1.46.289 2.204v10.265h-3.616zm19.167-4.5a4.183 4.183 0 01-.568 2.233 4.57 4.57 0 01-1.507 1.506 6.835 6.835 0 01-2.129.841c-.798.176-1.613.264-2.431.261a25.706 25.706 0 01-2.985-.156 19.28 19.28 0 01-2.513-.462V18.25c.892.38 1.821.665 2.771.849.859.169 1.732.256 2.607.26.947 0 1.653-.15 2.121-.458.21-.116.386-.288.51-.496a1.375 1.375 0 00.046-1.323 1.555 1.555 0 00-.556-.547 6.066 6.066 0 00-1.143-.542 25.854 25.854 0 00-1.937-.625 12.274 12.274 0 01-1.945-.716 5.017 5.017 0 01-1.381-.938 3.539 3.539 0 01-.819-1.258 4.695 4.695 0 01-.274-1.678 3.88 3.88 0 01.415-1.761 4.14 4.14 0 011.233-1.462 6.229 6.229 0 012.047-.985 10.14 10.14 0 012.868-.362 18.44 18.44 0 012.512.151c.727.1 1.374.211 1.935.331v2.996a15.36 15.36 0 00-2.416-.594 14.869 14.869 0 00-2.238-.172 3.413 3.413 0 00-1.791.407 1.234 1.234 0 00-.495.466 1.26 1.26 0 00-.178.662 1.37 1.37 0 00.133.617c.124.215.3.395.511.521.348.209.713.383 1.093.521.467.186 1.086.39 1.855.61.758.21 1.498.486 2.211.823a5.19 5.19 0 011.438.97c.345.345.608.768.767 1.234.163.51.242 1.045.233 1.582zm12.304 4.5v-9.963c0-1.674-.61-2.512-1.832-2.514a2.605 2.605 0 00-1.75.753 13.017 13.017 0 00-1.765 2.048v9.676h-3.608V.568h3.605v5.236l-.176 2.77c.284-.355.592-.689.921-1a4.891 4.891 0 012.205-1.204 5.76 5.76 0 011.405-.16 4.886 4.886 0 012.019.384 3.897 3.897 0 011.435 1.084c.4.495.695 1.068.867 1.685.2.717.296 1.46.287 2.204v10.265h-3.613zm20.3-7.764a10.313 10.313 0 01-.512 3.304 7.32 7.32 0 01-1.448 2.566 6.394 6.394 0 01-2.318 1.654 7.935 7.935 0 01-3.134.586 8.42 8.42 0 01-2.986-.495 5.793 5.793 0 01-2.226-1.485 6.578 6.578 0 01-1.405-2.467 11.097 11.097 0 01-.486-3.454c-.013-1.126.16-2.245.512-3.312a7.216 7.216 0 011.463-2.542 6.528 6.528 0 012.326-1.634 7.952 7.952 0 013.106-.578 8.346 8.346 0 012.999.505 5.823 5.823 0 012.231 1.496 6.58 6.58 0 011.397 2.47 10.9 10.9 0 01.481 3.386zm-3.753.091c0-1.587-.294-2.779-.881-3.574-.586-.795-1.451-1.198-2.594-1.206a3.226 3.226 0 00-1.609.375c-.443.252-.819.61-1.095 1.042a4.607 4.607 0 00-.627 1.527 8.296 8.296 0 00-.2 1.865c0 1.596.315 2.798.944 3.606.307.395.701.712 1.151.922.449.21.942.31 1.436.289a3.2 3.2 0 001.568-.37 2.94 2.94 0 001.078-1.024c.292-.474.502-.995.621-1.542a8.364 8.364 0 00.208-1.912v.002zm18.347 7.521c-.65.152-1.305.271-1.965.36-.622.088-1.249.133-1.878.136a9.05 9.05 0 01-2.558-.316 4.398 4.398 0 01-1.773-.964 3.838 3.838 0 01-1.037-1.646 7.648 7.648 0 01-.332-2.387v-7.46h-4.022V6.535h4.032V2.63l3.695-.977v4.89h5.838v2.865h-5.838v7.19c0 .87.197 1.53.591 1.98.394.452 1.054.675 1.98.67a9.74 9.74 0 001.73-.15 15.099 15.099 0 001.535-.347l.002 2.93zm16.426-8.654c0 .25-.007.576-.023.977 0 .401-.035.782-.066 1.128h-9.871c-.011.607.092 1.21.304 1.777.186.49.479.93.857 1.287a3.67 3.67 0 001.328.781 5.195 5.195 0 001.722.26 17.273 17.273 0 002.344-.171 18.578 18.578 0 002.592-.568v2.928c-.384.11-.801.209-1.256.3a25.69 25.69 0 01-1.387.24 19.76 19.76 0 01-2.838.21 8.927 8.927 0 01-3.07-.494 6.088 6.088 0 01-2.303-1.467 6.483 6.483 0 01-1.448-2.402 9.961 9.961 0 01-.512-3.309 10.83 10.83 0 01.512-3.387 7.812 7.812 0 011.42-2.605 6.214 6.214 0 012.224-1.685 6.974 6.974 0 012.919-.594 7.383 7.383 0 012.814.505c.776.31 1.474.79 2.047 1.407a6.07 6.07 0 011.257 2.152 8.41 8.41 0 01.434 2.73zm-3.663-.521a4.479 4.479 0 00-.223-1.563 3.12 3.12 0 00-.642-1.105 2.537 2.537 0 00-.947-.648 3.15 3.15 0 00-1.159-.211 2.909 2.909 0 00-1.213.221c-.384.16-.731.4-1.018.706-.583.615-.926 1.485-1.024 2.605l6.226-.005zm15.983-.018a6.811 6.811 0 00-.082-1.462 2.81 2.81 0 00-.361-.992 1.51 1.51 0 00-.596-.57 1.762 1.762 0 00-.813-.183 2.692 2.692 0 00-1.648.67 9.623 9.623 0 00-1.87 2.206v9.676h-3.69V6.542h3.267l.133 2.227c.239-.378.519-.727.835-1.042.306-.311.65-.582 1.023-.805a4.908 4.908 0 011.264-.521 6.059 6.059 0 011.522-.18 4.85 4.85 0 012.019.399 3.806 3.806 0 011.476 1.183 5.22 5.22 0 01.888 1.961c.205.896.292 1.815.256 2.733l-3.623-.01zm15.82 2.663v5.853h-3.326V15.15h-5.517v-3.024h5.512V6.302h3.326v5.823H250v3.024h-5.511z" fill="#7421B0"/><path d="M49.841 35.803c.003.055.003.11 0 .165a.552.552 0 01-.056.216.572.572 0 01-.082.099 1.517 1.517 0 01-.24.177c-.145.092-.297.17-.456.234a3.568 3.568 0 01-1.394.27 3.323 3.323 0 01-1.305-.244 2.637 2.637 0 01-.993-.724 3.26 3.26 0 01-.632-1.185 5.366 5.366 0 01-.222-1.62 5.445 5.445 0 01.238-1.678 3.67 3.67 0 01.67-1.25 2.843 2.843 0 011.023-.782c.42-.181.873-.27 1.328-.261.21 0 .42.02.627.063.19.039.379.09.563.153a2.6 2.6 0 01.458.22c.1.055.194.122.279.2a.708.708 0 01.1.12c.017.03.03.062.038.096.012.044.02.088.023.133.003.06.003.12 0 .18.005.066.005.132 0 .198a.556.556 0 01-.036.138.231.231 0 01-.053.083.131.131 0 01-.08.026.437.437 0 01-.225-.115 3.046 3.046 0 00-.926-.521 2.392 2.392 0 00-.783-.114 1.995 1.995 0 00-.903.203c-.275.137-.513.34-.694.591a2.907 2.907 0 00-.447.957 4.721 4.721 0 00-.159 1.302 4.86 4.86 0 00.151 1.271c.085.335.235.65.44.925.184.243.425.436.701.56a2.2 2.2 0 00.942.19c.26.005.519-.032.767-.109.197-.067.386-.155.566-.26.156-.092.284-.175.383-.248a.45.45 0 01.238-.112.108.108 0 01.074.021.112.112 0 01.042.065c.014.044.023.09.025.136.005.067.01.14.01.231zm5.061.964a.109.109 0 01-.02.063.152.152 0 01-.074.041.591.591 0 01-.144.027 1.84 1.84 0 01-.227 0 2.732 2.732 0 01-.256 0 .923.923 0 01-.164-.032.221.221 0 01-.092-.052.204.204 0 01-.041-.073l-.55-1.362a3.083 3.083 0 00-.22-.453 1.018 1.018 0 00-.624-.477 1.778 1.778 0 00-.448-.052h-.402v2.368a.087.087 0 01-.028.057.185.185 0 01-.087.047.788.788 0 01-.148.029 1.892 1.892 0 01-.213 0c-.07.004-.142.004-.212 0a.825.825 0 01-.151-.03.147.147 0 01-.082-.046.083.083 0 01-.026-.057v-5.346a.08.08 0 01.026-.058.216.216 0 01.082-.044c.05-.012.1-.02.15-.026h.425c.05.006.1.014.149.026.031.01.06.025.087.044a.08.08 0 01.028.058v2.204h.402c.134 0 .268-.016.399-.05a.984.984 0 00.33-.164 1.09 1.09 0 00.256-.297c.088-.137.16-.284.217-.437l.481-1.21a.194.194 0 01.126-.14.618.618 0 01.153-.034h.484a.893.893 0 01.138.026.157.157 0 01.067.044c.01.018.017.037.017.058a.431.431 0 01-.015.11 1.147 1.147 0 01-.044.135l-.496 1.162a2.553 2.553 0 01-.256.492 2.05 2.05 0 01-.273.328 1.229 1.229 0 01-.282.206 1.725 1.725 0 01-.276.115c.128.044.253.1.37.17.115.068.221.15.316.247.104.104.196.22.273.346.092.148.17.304.236.466l.568 1.332a.365.365 0 01.051.143v.052c0 .013.02.034.02.044zm5.642-2.753c.005.418-.044.835-.146 1.24-.083.336-.23.652-.43.932-.185.25-.426.452-.703.59a2.15 2.15 0 01-.96.208 1.618 1.618 0 01-.806-.193 2.132 2.132 0 01-.37-.26 5.024 5.024 0 01-.392-.355v2.642a.147.147 0 01-.023.08.175.175 0 01-.074.058.52.52 0 01-.144.036 1.967 1.967 0 01-.235 0 1.923 1.923 0 01-.23 0 .54.54 0 01-.146-.036.146.146 0 01-.074-.058.145.145 0 01-.02-.08v-7.352a.165.165 0 01.017-.086.13.13 0 01.07-.055.473.473 0 01.13-.034h.394a.477.477 0 01.127.034c.03.01.054.03.072.055a.143.143 0 01.02.086v.706c.144-.15.295-.293.453-.427.137-.115.285-.215.44-.3a1.897 1.897 0 01.944-.242 1.92 1.92 0 01.96.221c.262.145.484.354.648.607.172.275.295.58.363.899.078.355.117.72.115 1.084zm-.982.112c0-.262-.02-.523-.06-.782a2.275 2.275 0 00-.21-.67 1.225 1.225 0 00-.393-.466 1.05 1.05 0 00-.62-.177 1.15 1.15 0 00-.363.057c-.129.041-.252.1-.366.175a2.739 2.739 0 00-.386.315 5.215 5.215 0 00-.427.482v2.084c.216.28.466.529.744.743.213.165.472.256.74.26.218.007.433-.054.616-.174.174-.12.317-.28.415-.47.11-.204.19-.424.235-.653.049-.238.073-.48.075-.722v-.002zm6.652 2.607a.138.138 0 01-.097.13.64.64 0 01-.144.032 1.843 1.843 0 01-.23 0 1.765 1.765 0 01-.228 0 .756.756 0 01-.15-.031.146.146 0 01-.08-.055.137.137 0 01-.023-.075V33.24c0-.156.018-.313.03-.467-.089.157-.186.31-.29.46l-.318.447-2.185 3.053-.072.081a.196.196 0 01-.08.055.388.388 0 01-.122.029 1.258 1.258 0 01-.184 0 1.464 1.464 0 01-.207 0 .605.605 0 01-.131-.032.133.133 0 01-.087-.13v-5.278a.135.135 0 01.095-.133.555.555 0 01.146-.034h.225a1.12 1.12 0 01.378.044.141.141 0 01.102.13v3.499c0 .149-.017.3-.03.449.09-.149.18-.292.256-.435.077-.144.187-.282.289-.417l2.223-3.095a.538.538 0 01.07-.081.273.273 0 01.092-.055.566.566 0 01.13-.031h.399c.046.005.09.016.133.034.028.012.05.032.067.057a.15.15 0 01.02.084l.003 5.26zm5.938 0a.142.142 0 01-.023.081.192.192 0 01-.074.055.532.532 0 01-.143.034 1.843 1.843 0 01-.23 0 1.887 1.887 0 01-.236 0 .502.502 0 01-.143-.034.158.158 0 01-.074-.055.124.124 0 01-.023-.08v-2.309H68.57v2.309a.164.164 0 01-.02.08.201.201 0 01-.077.055.503.503 0 01-.143.034 1.887 1.887 0 01-.236 0 1.843 1.843 0 01-.23 0 .55.55 0 01-.146-.034.128.128 0 01-.071-.05.132.132 0 01-.023-.086v-5.267a.152.152 0 01.02-.081.181.181 0 01.074-.057.458.458 0 01.146-.037h.466c.05.004.098.016.143.037.03.013.055.033.077.057a.156.156 0 01.02.08v2.142h2.638v-2.139a.121.121 0 01.023-.08.181.181 0 01.074-.058.422.422 0 01.144-.036h.465a.44.44 0 01.144.036.224.224 0 01.074.058.137.137 0 01.023.08l-.003 5.265zm8.211-.2a.36.36 0 01-.08.26.277.277 0 01-.212.084h-6.225a.27.27 0 01-.215-.084.37.37 0 01-.077-.26v-5.067a.135.135 0 01.02-.081.173.173 0 01.078-.057.502.502 0 01.148-.037h.46a.44.44 0 01.144.037.225.225 0 01.074.057.137.137 0 01.023.08v4.578h2v-4.577a.135.135 0 01.021-.081.171.171 0 01.072-.057.408.408 0 01.138-.037h.453a.44.44 0 01.143.037.224.224 0 01.075.057.137.137 0 01.023.08v4.578h1.998v-4.577c0-.029.006-.056.02-.081a.181.181 0 01.075-.057.457.457 0 01.143-.037h.463c.05.004.1.017.146.037.03.013.055.032.076.057a.137.137 0 01.024.08l-.008 5.068zm6.212-2.496c.004.4-.052.8-.166 1.183-.105.344-.28.661-.512.933a2.215 2.215 0 01-.826.612 2.824 2.824 0 01-1.152.219 2.947 2.947 0 01-1.11-.193 2.048 2.048 0 01-.79-.56 2.442 2.442 0 01-.472-.897 4.238 4.238 0 01-.153-1.193c-.004-.4.05-.799.164-1.182.099-.343.267-.66.493-.933.232-.268.522-.476.847-.607a2.825 2.825 0 011.154-.216c.38-.01.756.056 1.11.192.305.12.576.312.791.56.218.261.38.566.474.894.106.387.156.787.148 1.188zm-.982.065a3.875 3.875 0 00-.08-.807 2.026 2.026 0 00-.256-.667 1.31 1.31 0 00-.488-.454 1.819 1.819 0 00-1.492 0 1.34 1.34 0 00-.512.43 1.961 1.961 0 00-.291.657 3.394 3.394 0 00-.095.83c-.001.274.024.546.077.814.045.234.131.459.256.661.122.191.29.346.488.451.239.12.502.177.768.167.25.006.497-.045.724-.151a1.35 1.35 0 00.512-.428c.138-.196.237-.418.291-.653.067-.279.1-.564.098-.85zm5.554-2.35c.005.066.005.132 0 .198a.405.405 0 01-.038.133.224.224 0 01-.059.08.152.152 0 01-.087.027h-1.55v4.544a.142.142 0 01-.023.08.19.19 0 01-.075.055.532.532 0 01-.143.034 1.887 1.887 0 01-.235 0 1.843 1.843 0 01-.23 0 .55.55 0 01-.146-.034.158.158 0 01-.075-.055.14.14 0 01-.02-.08V32.19h-1.55a.16.16 0 01-.085-.026.177.177 0 01-.059-.08.618.618 0 01-.038-.136 1.2 1.2 0 01-.013-.204 1.052 1.052 0 01.013-.187.53.53 0 01.04-.136.215.215 0 01.06-.083.147.147 0 01.081-.026h4.048c.03 0 .06.01.085.026.026.022.046.05.058.083a.703.703 0 01.039.141c.006.063.007.127.002.19zm7.489 4.981a.137.137 0 01-.023.076.151.151 0 01-.074.055.677.677 0 01-.143.031 2.05 2.05 0 01-.46 0 .767.767 0 01-.15-.031.136.136 0 01-.079-.055.12.12 0 01-.022-.075V33.24c0-.156.017-.313.028-.467a5.088 5.088 0 01-.29.46c-.104.15-.212.299-.32.447l-2.18 3.053-.07.081a.217.217 0 01-.08.055.387.387 0 01-.126.029c-.06.004-.12.004-.181 0a1.464 1.464 0 01-.207 0 .599.599 0 01-.13-.032.128.128 0 01-.07-.054.158.158 0 01-.02-.076v-5.278c0-.027.007-.053.02-.076a.146.146 0 01.074-.057.596.596 0 01.149-.034h.222a1.11 1.11 0 01.379.044.14.14 0 01.073.048.15.15 0 01.032.083v3.048c0 .15 0 .302-.013.45-.013.149-.015.3-.028.449.087-.149.176-.292.256-.435a3.26 3.26 0 01.291-.417l2.221-3.095a.742.742 0 01.072-.081.271.271 0 01.092-.055.534.534 0 01.13-.031h.4a.451.451 0 01.13.034.144.144 0 01.07.057c.013.026.02.054.02.084l.007 5.26zm7.29-1.463a1.51 1.51 0 01-.599 1.256 2.04 2.04 0 01-.709.34 3.556 3.556 0 01-.954.118 3.59 3.59 0 01-1.036-.154 2.023 2.023 0 01-.361-.149 1.1 1.1 0 01-.207-.13.425.425 0 01-.09-.096.26.26 0 01-.041-.097c0-.036-.013-.078-.02-.127-.008-.05 0-.112 0-.183a.846.846 0 01.041-.263.172.172 0 01.038-.062.099.099 0 01.064-.019c.065.01.126.037.177.079a2.765 2.765 0 00.767.354c.225.059.456.086.688.08.173.002.345-.018.512-.06.14-.035.272-.097.389-.182a.835.835 0 00.256-.302.947.947 0 00.087-.42.79.79 0 00-.085-.37.747.747 0 00-.271-.275 1.56 1.56 0 00-.471-.18 3.3 3.3 0 00-.693-.063h-.576a.188.188 0 01-.092-.02.197.197 0 01-.059-.066.267.267 0 01-.033-.117 1.233 1.233 0 010-.172 1.497 1.497 0 010-.164.416.416 0 01.036-.11.147.147 0 01.056-.062.18.18 0 01.087-.02h.54c.209.003.417-.016.622-.058.155-.031.303-.09.437-.175a.712.712 0 00.256-.278.844.844 0 00.082-.383.686.686 0 00-.294-.584 1.022 1.022 0 00-.33-.146 1.805 1.805 0 00-.42-.05 2.19 2.19 0 00-.609.084 3.02 3.02 0 00-.468.177c-.133.065-.24.123-.325.175a.423.423 0 01-.179.08.1.1 0 01-.054-.015.119.119 0 01-.046-.052.269.269 0 01-.028-.104 1.088 1.088 0 010-.162 1.2 1.2 0 01.026-.26.367.367 0 01.094-.17c.074-.065.156-.12.243-.164a2.07 2.07 0 01.405-.167c.167-.053.338-.094.511-.122a3.06 3.06 0 01.561-.05c.258-.002.516.027.767.089.215.053.418.146.599.276.164.118.298.274.389.456.096.197.143.414.138.633.007.283-.083.56-.256.782a1.459 1.459 0 01-.737.49c.155.016.305.061.443.132a1.391 1.391 0 01.67.69c.055.165.076.339.062.511zm4.933 1.463a.127.127 0 01-.046.105.303.303 0 01-.126.052 1.08 1.08 0 01-.235.018 1.16 1.16 0 01-.238-.018.285.285 0 01-.131-.052.146.146 0 01-.03-.048.153.153 0 01-.008-.056v-.522c-.219.237-.479.43-.768.571a1.96 1.96 0 01-.882.206c-.251.002-.5-.034-.74-.107a1.579 1.579 0 01-.56-.315 1.38 1.38 0 01-.363-.5 1.72 1.72 0 01-.128-.68 1.594 1.594 0 01.176-.782c.124-.222.3-.41.512-.544a2.47 2.47 0 01.816-.324 4.91 4.91 0 011.085-.109h.711v-.409a1.942 1.942 0 00-.064-.537.932.932 0 00-.202-.39.878.878 0 00-.366-.232 1.602 1.602 0 00-.55-.081 2.133 2.133 0 00-.629.086 3.063 3.063 0 00-.489.188 5.72 5.72 0 00-.35.184.466.466 0 01-.208.086.14.14 0 01-.081-.023.172.172 0 01-.059-.07.36.36 0 01-.039-.12 1.09 1.09 0 01-.012-.162 1.038 1.038 0 01.02-.229.315.315 0 01.1-.162 1.28 1.28 0 01.256-.177c.139-.076.286-.139.437-.187.183-.058.371-.102.56-.13.195-.037.393-.055.592-.055.32-.008.641.035.949.128.237.072.454.201.632.377.165.173.285.384.35.615.076.28.112.57.108.86v3.545zm-.942-2.404h-.808a3.024 3.024 0 00-.678.068 1.38 1.38 0 00-.476.198.807.807 0 00-.279.315.986.986 0 00-.09.425.856.856 0 00.256.65.998.998 0 00.714.246c.244 0 .484-.066.693-.193a3.01 3.01 0 00.668-.591v-1.118zm6.693 2.404a.136.136 0 01-.023.081.188.188 0 01-.074.055.53.53 0 01-.143.034 1.839 1.839 0 01-.23 0 1.896 1.896 0 01-.236 0 .552.552 0 01-.146-.034.181.181 0 01-.079-.055.147.147 0 01-.031-.08V32.13h-2.461v4.603a.136.136 0 01-.023.081.2.2 0 01-.079.055.552.552 0 01-.146.034 1.839 1.839 0 01-.23 0 1.807 1.807 0 01-.228 0 .603.603 0 01-.149-.034.129.129 0 01-.094-.136V31.66a.365.365 0 01.079-.261.278.278 0 01.215-.086h3.784a.27.27 0 01.213.086.39.39 0 01.074.26l.007 5.075zm6.005 0a.156.156 0 01-.023.076.155.155 0 01-.076.055.65.65 0 01-.144.031 2.016 2.016 0 01-.458 0 .819.819 0 01-.151-.031.149.149 0 01-.079-.055.135.135 0 01-.023-.075V33.24c0-.156.018-.313.031-.467-.09.157-.187.31-.292.46-.105.148-.21.299-.317.447l-2.185 3.053-.072.081a.195.195 0 01-.079.055.39.39 0 01-.123.029 1.256 1.256 0 01-.184 0 1.46 1.46 0 01-.207 0 .537.537 0 01-.128-.032.127.127 0 01-.069-.054.127.127 0 01-.021-.076v-5.278a.127.127 0 01.021-.076.143.143 0 01.074-.057.556.556 0 01.146-.034h.225a1.12 1.12 0 01.378.044.14.14 0 01.103.13v3.499c0 .149-.018.3-.031.449.09-.149.179-.292.256-.435.077-.144.187-.282.289-.417l2.223-3.095a.632.632 0 01.072-.081.23.23 0 01.092-.055.537.537 0 01.128-.031h.399a.462.462 0 01.133.034.164.164 0 01.069.057.173.173 0 01.021.084l.002 5.26zm5.118-.807v.172a.554.554 0 01-.054.211.603.603 0 01-.092.112 1.65 1.65 0 01-.256.18c-.123.076-.252.14-.386.192a2.645 2.645 0 01-.98.19 2.45 2.45 0 01-.988-.187 1.894 1.894 0 01-.722-.547 2.552 2.552 0 01-.442-.883 4.382 4.382 0 01-.151-1.206 4.206 4.206 0 01.174-1.334c.104-.34.278-.65.512-.915a1.99 1.99 0 01.767-.52c.304-.118.627-.176.952-.173.309.001.616.059.906.17.121.046.238.104.348.174.078.05.152.106.22.17.036.033.067.07.094.111a.481.481 0 01.067.221c.003.06.003.117 0 .175a.688.688 0 01-.051.32.15.15 0 01-.126.091.338.338 0 01-.199-.095 2.992 2.992 0 00-.284-.214 2.062 2.062 0 00-.415-.214 1.555 1.555 0 00-.578-.096 1.18 1.18 0 00-.591.122 1.203 1.203 0 00-.458.4 2.752 2.752 0 00-.363 1.562c-.005.3.027.6.094.891.053.23.147.447.279.641.115.166.27.298.451.383a1.4 1.4 0 00.611.125c.196.005.391-.03.573-.104.151-.062.295-.14.43-.232.12-.083.22-.159.305-.227a.343.343 0 01.191-.104c.025 0 .05.008.07.024a.21.21 0 01.048.08.59.59 0 01.028.139.972.972 0 01.016.195zm5.194-.873c.002.26-.048.516-.146.756-.1.237-.257.446-.456.607a2.26 2.26 0 01-.793.406 3.942 3.942 0 01-1.154.151h-.65l-.314-.02-.305-.03a.467.467 0 01-.457-.344.49.49 0 01-.014-.205v-4.908c0-.029.007-.056.021-.081a.18.18 0 01.074-.057.458.458 0 01.146-.037h.46c.051.004.1.017.146.037.03.013.056.032.077.057a.136.136 0 01.023.08v1.853c.143 0 .294-.02.461-.026.166-.005.332 0 .511 0 .363-.006.725.037 1.077.128.268.067.518.19.737.36.186.145.332.337.425.557.091.227.135.47.131.716zm-.998.065a1.24 1.24 0 00-.075-.435.78.78 0 00-.255-.333 1.224 1.224 0 00-.448-.211 2.768 2.768 0 00-.678-.073c-.161 0-.317 0-.473.013-.157.013-.295.015-.423.028v2.022a7.41 7.41 0 00.942.06c.374.03.746-.07 1.057-.284a.965.965 0 00.353-.787zm7.998-1.151c.006.433-.048.864-.161 1.282a2.63 2.63 0 01-.471.945 1.98 1.98 0 01-.768.589c-.34.139-.703.207-1.069.2a3.162 3.162 0 01-1.059-.174 1.804 1.804 0 01-.563-.32.644.644 0 01-.087-.089.286.286 0 01-.039-.089.586.586 0 01-.02-.125v-.185a.722.722 0 01.041-.302.131.131 0 01.112-.078.29.29 0 01.169.094 2 2 0 00.292.203 2.188 2.188 0 001.149.294 1.357 1.357 0 001.082-.453c.298-.394.452-.881.437-1.378h-2.599a.14.14 0 01-.128-.083.618.618 0 01-.046-.28.607.607 0 01.046-.275.142.142 0 01.128-.086h2.584a2.757 2.757 0 00-.148-.696 1.562 1.562 0 00-.318-.52 1.354 1.354 0 00-.478-.34 1.577 1.577 0 00-.635-.12 1.65 1.65 0 00-.593.097 2.253 2.253 0 00-.44.211 2.75 2.75 0 00-.297.208.314.314 0 01-.169.097.089.089 0 01-.059-.019.176.176 0 01-.046-.062.34.34 0 01-.03-.117 1.468 1.468 0 010-.188 1.545 1.545 0 010-.166c0-.045.012-.081.02-.113a.451.451 0 01.028-.08.394.394 0 01.064-.076 1.82 1.82 0 01.187-.14 2.33 2.33 0 01.356-.19c.165-.07.337-.125.511-.165.206-.047.416-.07.627-.068a2.51 2.51 0 01.972.183c.293.118.555.302.768.54.222.25.39.546.494.867.114.377.167.772.156 1.167zm5.258 2.8a.108.108 0 01-.021.063.15.15 0 01-.074.041.59.59 0 01-.143.027 1.845 1.845 0 01-.228 0 2.277 2.277 0 01-.256 0 .988.988 0 01-.164-.032.228.228 0 01-.092-.052.216.216 0 01-.038-.073l-.553-1.362a3.033 3.033 0 00-.22-.453 1.03 1.03 0 00-.624-.477 1.782 1.782 0 00-.448-.052h-.401v2.368a.085.085 0 01-.029.057.182.182 0 01-.087.047.782.782 0 01-.148.029 1.704 1.704 0 01-.212 0 1.682 1.682 0 01-.213 0 .752.752 0 01-.148-.03.16.16 0 01-.085-.046.086.086 0 01-.025-.057v-5.346c0-.011.002-.022.007-.032a.086.086 0 01.018-.026.234.234 0 01.085-.044c.049-.012.098-.02.148-.026h.425c.05.006.1.014.148.026.032.01.061.025.087.044a.088.088 0 01.029.057v2.205h.401c.135 0 .269-.016.399-.05a.975.975 0 00.33-.164c.102-.083.188-.184.256-.297.086-.138.158-.285.215-.437l.481-1.21a.199.199 0 01.041-.083.207.207 0 01.087-.057.58.58 0 01.151-.034h.481a.772.772 0 01.138.026.155.155 0 01.067.044.117.117 0 01.018.058.45.45 0 01-.016.11 1.075 1.075 0 01-.043.135l-.491 1.162a2.582 2.582 0 01-.256.492c-.079.12-.171.23-.274.328a1.25 1.25 0 01-.281.206 1.748 1.748 0 01-.277.115c.129.044.253.1.371.17.12.068.23.153.328.252.104.104.196.22.274.346.091.148.17.304.235.467l.568 1.33c.014.025.026.05.036.076 0 .024 0 .047.018.068.018.021 0 .04 0 .052a.5.5 0 01.005.04zm5.641-2.753a4.84 4.84 0 01-.145 1.24 2.75 2.75 0 01-.43.932c-.186.25-.427.452-.704.59-.3.142-.628.214-.959.208a1.818 1.818 0 01-.425-.047 1.6 1.6 0 01-.381-.146 2.102 2.102 0 01-.371-.26 5.08 5.08 0 01-.392-.355v2.642a.137.137 0 01-.023.08.155.155 0 01-.074.058.507.507 0 01-.143.036 1.977 1.977 0 01-.236 0 1.918 1.918 0 01-.23 0 .545.545 0 01-.146-.036.147.147 0 01-.074-.058.174.174 0 01-.02-.08v-7.352a.17.17 0 01.017-.086.134.134 0 01.07-.055.462.462 0 01.13-.034h.394a.529.529 0 01.131.034.16.16 0 01.069.055.143.143 0 01.02.086v.706c.145-.15.297-.293.456-.427.135-.115.282-.216.437-.3a2.05 2.05 0 01.456-.183c.159-.041.323-.061.488-.06.333-.01.664.066.96.222a1.8 1.8 0 01.647.607c.169.276.289.58.353.899.082.355.124.719.125 1.084zm-.982.112c0-.262-.02-.523-.059-.782a2.275 2.275 0 00-.21-.67 1.221 1.221 0 00-.394-.466 1.05 1.05 0 00-.619-.177c-.123 0-.246.019-.363.057-.129.04-.251.1-.364.175a2.59 2.59 0 00-.388.315 5.312 5.312 0 00-.428.482v2.084c.218.279.469.528.747.743.212.165.47.257.737.26.218.007.433-.054.617-.174a1.32 1.32 0 00.417-.47 2.39 2.39 0 00.233-.653c.049-.237.074-.48.074-.722v-.002zm5.946 2.607a.127.127 0 01-.046.105.294.294 0 01-.125.052c-.078.014-.157.02-.236.018a1.172 1.172 0 01-.238-.018.277.277 0 01-.13-.052.131.131 0 01-.03-.048.136.136 0 01-.009-.056v-.522c-.218.237-.479.43-.767.571a1.967 1.967 0 01-.883.206 2.42 2.42 0 01-.737-.107 1.574 1.574 0 01-.563-.315 1.403 1.403 0 01-.363-.5 1.738 1.738 0 01-.128-.68 1.606 1.606 0 01.177-.782c.123-.222.299-.41.511-.544.252-.156.528-.266.817-.324.356-.076.72-.113 1.084-.109h.712v-.409a2.108 2.108 0 00-.062-.537.946.946 0 00-.204-.39.885.885 0 00-.366-.232 1.61 1.61 0 00-.55-.081 2.144 2.144 0 00-.63.086 2.84 2.84 0 00-.486.188 4.95 4.95 0 00-.35.184.486.486 0 01-.21.086.143.143 0 01-.082-.023.198.198 0 01-.059-.07.338.338 0 01-.038-.12 1.088 1.088 0 010-.162.929.929 0 01.02-.229.33.33 0 01.097-.162c.078-.069.164-.128.256-.177a3.607 3.607 0 011.569-.383c.32-.007.639.036.946.128.238.072.455.202.632.378.165.172.286.383.351.615.076.28.112.569.107.86l.013 3.556zm-.941-2.404h-.809a3.03 3.03 0 00-.678.068 1.389 1.389 0 00-.476.198.807.807 0 00-.279.315.985.985 0 00-.089.425.856.856 0 00.256.65c.199.172.455.26.716.246.243 0 .482-.066.691-.193.25-.162.475-.362.668-.591v-1.118zm6.854 2.404a.136.136 0 01-.023.081.188.188 0 01-.074.055.53.53 0 01-.143.034 1.855 1.855 0 01-.231 0 1.88 1.88 0 01-.235 0 .494.494 0 01-.143-.034.173.173 0 01-.075-.055.152.152 0 01-.023-.08v-2.309h-2.635v2.309a.136.136 0 01-.023.08.195.195 0 01-.074.055.552.552 0 01-.146.034 1.88 1.88 0 01-.235 0 1.845 1.845 0 01-.228 0 .603.603 0 01-.149-.034.176.176 0 01-.074-.055.173.173 0 01-.02-.08v-5.268a.152.152 0 01.02-.081.206.206 0 01.074-.057.51.51 0 01.149-.037h.463c.05.004.099.017.146.037a.233.233 0 01.074.057.136.136 0 01.023.08v2.142h2.635v-2.139a.136.136 0 01.023-.08.2.2 0 01.075-.058.416.416 0 01.143-.036h.466a.445.445 0 01.143.036.233.233 0 01.074.058.136.136 0 01.023.08v5.265zm5.304 0a.127.127 0 01-.046.105.309.309 0 01-.128.052c-.078.014-.156.02-.235.018a1.16 1.16 0 01-.238-.018.252.252 0 01-.128-.052.123.123 0 01-.041-.104v-.522a2.55 2.55 0 01-.755.571 1.956 1.956 0 01-.883.206 2.42 2.42 0 01-.737-.107 1.587 1.587 0 01-.562-.315 1.378 1.378 0 01-.361-.5 1.703 1.703 0 01-.131-.68 1.593 1.593 0 01.179-.782c.123-.222.299-.41.512-.544a2.47 2.47 0 01.816-.324 4.921 4.921 0 011.085-.109h.714v-.409c.002-.18-.02-.361-.064-.537a.919.919 0 00-.205-.39.87.87 0 00-.363-.232 1.62 1.62 0 00-.553-.081 2.106 2.106 0 00-.626.086c-.169.047-.332.11-.489.188-.141.067-.256.13-.351.184a.476.476 0 01-.21.086.136.136 0 01-.079-.023.212.212 0 01-.061-.07.36.36 0 01-.039-.12 1.088 1.088 0 010-.162.93.93 0 01.021-.229.33.33 0 01.097-.162 1.28 1.28 0 01.256-.177c.14-.075.286-.138.437-.187a3.631 3.631 0 011.131-.196c.321-.007.64.036.947.128.238.072.454.202.632.378.166.172.286.383.351.615.076.28.113.569.11.86l-.003 3.556zm-.942-2.404h-.811a3.035 3.035 0 00-.678.068c-.169.035-.33.102-.476.198a.821.821 0 00-.278.315.986.986 0 00-.09.425.871.871 0 00.256.65c.199.172.456.26.716.246.243 0 .482-.066.691-.193a3.09 3.09 0 00.67-.591v-1.118zm8.876.883c.005.255-.048.508-.153.74a1.422 1.422 0 01-.461.544 2.246 2.246 0 01-.767.334c-.347.08-.702.117-1.057.112h-.711l-.331-.021-.324-.029a.445.445 0 01-.339-.158.474.474 0 01-.109-.363v-4.533a.572.572 0 01.105-.367.464.464 0 01.325-.151c.099-.013.207-.024.319-.031l.348-.019c.118 0 .241 0 .366-.015.126-.016.256 0 .387 0 .324-.005.647.027.964.094.24.049.468.142.676.273.171.108.309.262.399.446.09.187.135.393.13.601.007.273-.075.54-.232.761a1.282 1.282 0 01-.686.448c.329.055.631.222.854.474.196.242.301.547.297.86zm-1.141-2.444a.813.813 0 00-.069-.344.62.62 0 00-.228-.26 1.184 1.184 0 00-.407-.159 3.082 3.082 0 00-.606-.052c-.179 0-.345 0-.494.015-.148.016-.276.021-.378.032v1.636h.964c.317.021.634-.057.906-.224a.756.756 0 00.312-.643zm.171 2.462a.97.97 0 00-.079-.411.708.708 0 00-.256-.297 1.293 1.293 0 00-.447-.175 3.112 3.112 0 00-.648-.06h-.923v1.866c.071 0 .148.02.227.028l.241.016.256.015h.227c.215.004.429-.019.637-.067.158-.037.307-.103.441-.196a.778.778 0 00.255-.312c.055-.129.083-.267.082-.407h-.013zm8.759 1.243a.983.983 0 01-.018.188.442.442 0 01-.046.122.184.184 0 01-.067.068.16.16 0 01-.077.018h-3.881a.14.14 0 01-.074-.018.239.239 0 01-.067-.068.359.359 0 01-.048-.123.74.74 0 01-.018-.187.7.7 0 01.061-.307.202.202 0 01.061-.076.144.144 0 01.085-.026h1.55v-5.752l-1.435.872a.642.642 0 01-.176.07.119.119 0 01-.105-.025.218.218 0 01-.057-.128 1.638 1.638 0 01-.012-.221 1.595 1.595 0 010-.17.584.584 0 01.025-.117.284.284 0 01.049-.08.619.619 0 01.084-.071l1.712-1.118a.218.218 0 01.056-.028l.087-.024a.725.725 0 01.12-.015h.172c.077-.005.153-.005.23 0a.63.63 0 01.143.03.115.115 0 01.069.053c.012.02.018.044.018.068v6.648h1.344c.031 0 .061.009.087.026a.22.22 0 01.066.076c.017.04.03.082.039.125.014.062.021.126.023.19zm7.683.294a.107.107 0 01-.02.063.158.158 0 01-.075.041.582.582 0 01-.143.027 1.845 1.845 0 01-.228 0c-.085.004-.17.004-.256 0a.958.958 0 01-.163-.032.2.2 0 01-.092-.052.19.19 0 01-.041-.073l-.55-1.362a3.134 3.134 0 00-.22-.453 1.013 1.013 0 00-.625-.477 1.77 1.77 0 00-.455-.06h-.402v2.368a.089.089 0 01-.028.057.182.182 0 01-.087.047.798.798 0 01-.148.029 1.72 1.72 0 01-.213 0 1.63 1.63 0 01-.212 0 .83.83 0 01-.151-.029.148.148 0 01-.082-.047.083.083 0 01-.026-.057v-5.338a.111.111 0 01.007-.032.089.089 0 01.019-.026.218.218 0 01.082-.044c.05-.012.1-.02.151-.026h.425c.05.006.099.014.148.026.031.01.06.025.087.044a.089.089 0 01.02.026.07.07 0 01.008.032v2.204h.402c.134 0 .268-.016.399-.05a.984.984 0 00.33-.164 1.09 1.09 0 00.256-.297c.088-.137.161-.284.217-.437l.481-1.21a.199.199 0 01.041-.083.207.207 0 01.087-.057.58.58 0 01.151-.034h.481a.873.873 0 01.138.026.155.155 0 01.067.044.117.117 0 01.018.058.504.504 0 01-.015.11 1.273 1.273 0 01-.044.135l-.486 1.162a2.393 2.393 0 01-.527.82 1.234 1.234 0 01-.282.206 1.7 1.7 0 01-.276.115c.129.044.253.1.371.17a1.5 1.5 0 01.315.247c.104.104.196.22.274.346.091.148.17.304.235.466l.568 1.332a.517.517 0 01.036.075.39.39 0 01.015.068v.052a.182.182 0 01.018.044zm5.13-.034a.136.136 0 01-.023.081.176.176 0 01-.074.055.501.501 0 01-.144.034 1.839 1.839 0 01-.23 0 1.88 1.88 0 01-.235 0 .552.552 0 01-.146-.034.186.186 0 01-.077-.055.152.152 0 01-.023-.08V32.13h-1.417a22.64 22.64 0 01-.22 1.654c-.074.427-.171.848-.289 1.264-.09.314-.212.618-.364.907-.115.22-.264.42-.44.593-.146.144-.32.254-.512.323-.19.07-.391.104-.593.102a.254.254 0 01-.09-.018.153.153 0 01-.059-.065.45.45 0 01-.035-.13 1.636 1.636 0 010-.222v-.227a.564.564 0 01.028-.14.14.14 0 01.054-.07.162.162 0 01.076-.019.78.78 0 00.361-.088.99.99 0 00.322-.3 2.52 2.52 0 00.282-.544c.101-.269.181-.545.24-.826.075-.329.141-.712.208-1.15.066-.437.125-.942.184-1.51a.45.45 0 01.082-.26.252.252 0 01.204-.087h2.654a.282.282 0 01.215.086.38.38 0 01.076.26l-.015 5.07zm6.005 0a.135.135 0 01-.023.076.155.155 0 01-.074.055.719.719 0 01-.144.031 2.033 2.033 0 01-.46 0 .765.765 0 01-.148-.031.149.149 0 01-.082-.055.135.135 0 01-.023-.075V33.24c0-.156.015-.313.028-.467-.09.157-.184.31-.289.46l-.32.447-2.18 3.053-.072.081a.225.225 0 01-.082.055.384.384 0 01-.122.029 1.215 1.215 0 01-.185 0 1.46 1.46 0 01-.207 0 .633.633 0 01-.128-.032.13.13 0 01-.089-.13v-5.278c0-.027.007-.053.02-.076a.146.146 0 01.074-.057.552.552 0 01.146-.034h.225a1.13 1.13 0 01.379.044.138.138 0 01.072.049.137.137 0 01.03.082v3.498c0 .149-.018.3-.028.449.087-.149.177-.292.256-.435.079-.144.187-.282.289-.417l2.224-3.095a.557.557 0 01.071-.081.273.273 0 01.092-.055.562.562 0 01.128-.031h.399a.462.462 0 01.133.034.146.146 0 01.07.057c.013.026.02.054.02.084v5.26zm5.619.034a.116.116 0 01-.021.063.15.15 0 01-.074.041.6.6 0 01-.143.027 1.845 1.845 0 01-.228 0 2.277 2.277 0 01-.256 0 .94.94 0 01-.164-.032.221.221 0 01-.092-.052.22.22 0 01-.041-.073l-.55-1.362a3.033 3.033 0 00-.22-.453 1.017 1.017 0 00-.624-.477 1.782 1.782 0 00-.448-.052h-.402v2.368a.08.08 0 01-.028.057.182.182 0 01-.087.047.782.782 0 01-.148.029 1.704 1.704 0 01-.212 0 1.682 1.682 0 01-.213 0 .838.838 0 01-.151-.03.15.15 0 01-.082-.046.086.086 0 01-.025-.057v-5.346c0-.011.002-.022.007-.032a.071.071 0 01.018-.026.218.218 0 01.082-.044c.05-.012.1-.02.151-.026h.425c.05.006.099.014.148.026a.3.3 0 01.087.044.074.074 0 01.02.026.07.07 0 01.008.032v2.204h.402c.135 0 .269-.016.399-.05a.984.984 0 00.33-.164 1.09 1.09 0 00.256-.297c.088-.137.161-.284.218-.437l.481-1.21a.18.18 0 01.041-.083.186.186 0 01.084-.057.62.62 0 01.154-.034h.483a.873.873 0 01.138.026.155.155 0 01.067.044.117.117 0 01.018.058.45.45 0 01-.016.11 1.075 1.075 0 01-.043.135l-.496 1.162a2.64 2.64 0 01-.256.492 2.07 2.07 0 01-.274.328 1.234 1.234 0 01-.282.206 1.783 1.783 0 01-.276.115c.129.045.253.101.371.17a1.5 1.5 0 01.315.247c.104.104.196.22.274.346.091.148.17.304.235.466l.568 1.332a.517.517 0 01.036.075.39.39 0 01.015.068v.052c.018.01.021.034.021.044z" fill="#484848"/><path d="M12.312 0v5.969h-6.45v6.567H0V0h12.312zM0 25.476h5.862v6.566h6.45v5.968H0V25.476zM25.02 38.01v-5.968h6.448v-6.566h5.862V38.01H25.02zm12.31-25.474h-5.862V5.97H25.02V0h12.31v12.536z" fill="#7421B0"/></g><defs><clipPath id="clip0_301_63"><path fill="#fff" d="M0 0h250v39H0z"/></clipPath></defs></svg>